<?xml version="1.0" encoding="utf-8"?>
<!-- Generator: Adobe Illustrator 24.2.0, SVG Export Plug-In . SVG Version: 6.00 Build 0)  -->
<svg version="1.1" id="Layer_1" xmlns="http://www.w3.org/2000/svg" xmlns:xlink="http://www.w3.org/1999/xlink" x="0px" y="0px"
	 viewBox="0 0 614.52 168.6" style="enable-background:new 0 0 614.52 168.6;" xml:space="preserve">
<style type="text/css">
	.st0{fill:#FF0000;}
	.st1{fill:#000000;stroke:#000000;stroke-width:2.228;stroke-miterlimit:10;}
</style>
<rect x="524.08" y="121.45" class="st0" width="90.43" height="47.15"/>
<path class="st1" d="M43.24,52.84v10.98h29.78V75.9H43.24v44.18H28.69V75.9H5.78V63.82h22.92V53.53c0-12.62,2.86-22.07,8.58-28.33
	c5.72-6.27,14.34-9.4,25.86-9.4c5.21,0,10.25,0.46,15.09,1.37l-1.51,12.62c-5.4-0.64-10.06-0.96-14-0.96
	C49.73,28.83,43.24,36.84,43.24,52.84z"/>
<path class="st1" d="M96.18,117.02c-4.78-2.95-8.42-7.25-10.91-12.9c-2.49-5.65-3.74-12.45-3.74-20.41s1.25-14.76,3.74-20.41
	c2.49-5.65,6.13-9.95,10.91-12.9c4.78-2.95,10.51-4.43,17.19-4.43c6.68,0,12.41,1.48,17.19,4.43c4.78,2.95,8.42,7.25,10.91,12.9
	c2.49,5.65,3.74,12.45,3.74,20.41s-1.25,14.76-3.74,20.41c-2.49,5.65-6.13,9.95-10.91,12.9c-4.78,2.95-10.51,4.43-17.19,4.43
	C106.69,121.45,100.96,119.98,96.18,117.02z M125.75,102c2.9-4.28,4.36-10.37,4.36-18.28c0-7.91-1.45-14.01-4.36-18.28
	c-2.91-4.28-7.03-6.41-12.38-6.41c-5.35,0-9.48,2.14-12.38,6.41c-2.91,4.28-4.36,10.37-4.36,18.28c0,7.91,1.45,14.01,4.36,18.28
	c2.9,4.28,7.03,6.42,12.38,6.42C118.72,108.42,122.84,106.28,125.75,102z"/>
<path class="st1" d="M215.98,48.83c3.13,1.9,5.44,4.84,6.93,8.82c1.49,3.98,2.23,9.19,2.23,15.64h-14.41
	c0-5.26-0.79-9.07-2.37-11.42c-1.58-2.36-4.13-3.53-7.65-3.53c-6.08,0-10.67,2.61-13.76,7.82c-3.09,5.21-4.63,12.76-4.63,22.64V108
	h17.84v12.08h-48.57V108h16.19V59.43h-13.45V47.35h25.25l2.47,18.66h1.65c0.41-6.72,2.27-11.74,5.59-15.06
	c3.32-3.32,8.13-4.97,14.44-4.97C208.76,45.98,212.84,46.93,215.98,48.83z"/>
<path class="st1" d="M295.39,90.17h-49.12c1.28,6.04,4.16,10.63,8.64,13.79c4.48,3.16,10.38,4.73,17.7,4.73
	c5.63,0,11.57-0.64,17.84-1.92l1.78,12.76c-6.72,1.28-13.81,1.92-21.27,1.92c-8.28,0-15.31-1.46-21.1-4.39
	c-5.79-2.93-10.19-7.21-13.21-12.86c-3.02-5.65-4.53-12.52-4.53-20.62c0-7.87,1.28-14.61,3.84-20.24c2.56-5.63,6.3-9.92,11.22-12.9
	c4.92-2.97,10.83-4.46,17.73-4.46c9.88,0,17.5,3,22.85,8.99c5.35,5.99,8.03,14.61,8.03,25.86
	C295.81,84.17,295.67,87.28,295.39,90.17z M282.63,79.05c0-6.49-1.54-11.5-4.63-15.02c-3.09-3.52-7.4-5.28-12.93-5.28
	c-5.63,0-10.11,1.76-13.45,5.28c-3.34,3.52-5.31,8.53-5.9,15.02H282.63z"/>
<path class="st1" d="M317.88,117.02c-4.78-2.95-8.42-7.25-10.91-12.9c-2.49-5.65-3.74-12.45-3.74-20.41s1.25-14.76,3.74-20.41
	c2.49-5.65,6.13-9.95,10.91-12.9c4.78-2.95,10.51-4.43,17.19-4.43c6.68,0,12.41,1.48,17.19,4.43s8.42,7.25,10.91,12.9
	c2.49,5.65,3.74,12.45,3.74,20.41s-1.25,14.76-3.74,20.41c-2.49,5.65-6.13,9.95-10.91,12.9c-4.78,2.95-10.51,4.43-17.19,4.43
	C328.38,121.45,322.65,119.98,317.88,117.02z M347.44,102c2.9-4.28,4.36-10.37,4.36-18.28c0-7.91-1.45-14.01-4.36-18.28
	c-2.9-4.28-7.03-6.41-12.38-6.41s-9.48,2.14-12.38,6.41c-2.9,4.28-4.36,10.37-4.36,18.28c0,7.91,1.45,14.01,4.36,18.28
	c2.9,4.28,7.03,6.42,12.38,6.42S344.54,106.28,347.44,102z"/>
<path class="st1" d="M427.38,50.48c4.37,3,7.68,7.38,9.95,13.14c2.26,5.76,3.4,12.69,3.4,20.79c0,7.91-1.13,14.64-3.4,20.17
	c-2.26,5.54-5.56,9.73-9.88,12.59c-4.32,2.86-9.55,4.29-15.68,4.29c-5.58,0-10.08-1.08-13.52-3.22s-5.38-5.28-5.83-9.4h-1.37v42.81
	h-14.54V47.35h13.17l1.17,13.17h1.58c0.64-4.89,2.55-8.54,5.73-10.94c3.18-2.4,7.67-3.6,13.48-3.6
	C417.77,45.98,423.01,47.48,427.38,50.48z M422.07,102.86c2.83-4.16,4.25-10.31,4.25-18.46c0-8.32-1.45-14.75-4.36-19.28
	c-2.91-4.53-7.03-6.79-12.38-6.79c-12.35,0-18.52,6.95-18.52,20.86v17.56c0,8.23,6.13,12.35,18.39,12.35
	C415.02,109.1,419.23,107.02,422.07,102.86z"/>
<path class="st1" d="M454.56,120.97c-3.91-0.32-7.44-0.85-10.6-1.58l1.65-13.17c9.33,1.46,17.06,2.2,23.19,2.2
	c7.32,0,12.65-0.72,15.99-2.16c3.34-1.44,5.01-3.74,5.01-6.9c0-2.1-0.56-3.71-1.68-4.8c-1.12-1.1-2.94-1.97-5.45-2.61l-16.74-4.25
	c-4.67-1.19-8.39-2.56-11.18-4.12c-2.79-1.55-4.87-3.53-6.24-5.93c-1.37-2.4-2.06-5.41-2.06-9.02c0-5.35,1.29-9.68,3.88-13
	c2.58-3.32,6.61-5.75,12.08-7.31c5.46-1.55,12.59-2.33,21.37-2.33c6.68,0,13.08,0.46,19.21,1.37l-1.51,12.62
	c-6.91-0.64-12.94-0.96-18.11-0.96c-7.68,0-13.24,0.7-16.67,2.09c-3.43,1.4-5.15,3.67-5.15,6.83c0,2.01,0.59,3.52,1.78,4.53
	c1.19,1.01,3.2,1.88,6.04,2.61l13.45,3.29c5.21,1.28,9.42,2.79,12.62,4.53c3.2,1.74,5.58,3.91,7.13,6.52
	c1.55,2.61,2.33,5.83,2.33,9.67c0,5.26-1.26,9.53-3.77,12.79c-2.52,3.27-6.42,5.68-11.7,7.24c-5.28,1.55-12.16,2.33-20.62,2.33
	C463.22,121.45,458.47,121.29,454.56,120.97z"/>
<rect x="11.19" y="108.13" class="st1" width="50.78" height="12"/>
</svg>
