<?xml version="1.0" encoding="utf-8"?>
<!-- Generator: Adobe Illustrator 28.2.0, SVG Export Plug-In . SVG Version: 6.00 Build 0)  -->
<svg version="1.1" id="Layer_1" xmlns="http://www.w3.org/2000/svg" xmlns:xlink="http://www.w3.org/1999/xlink" x="0px" y="0px"
	 viewBox="0 0 614.5 200" style="enable-background:new 0 0 614.5 168.6;" xml:space="preserve">
<style type="text/css">
	.st0{fill:#FF0000;}
	.st1{fill:#FFFFFF;stroke:#FFFFFF;stroke-width:2.228;stroke-miterlimit:10;}
</style>
<path class="st1" d="M454.6,121c-3.9-0.3-7.4-0.8-10.6-1.6l1.6-13.2c9.3,1.5,17.1,2.2,23.2,2.2c7.3,0,12.6-0.7,16-2.2s5-3.7,5-6.9
	c0-2.1-0.6-3.7-1.7-4.8c-1.1-1.1-2.9-2-5.5-2.6l-16.7-4.2c-4.7-1.2-8.4-2.6-11.2-4.1c-2.8-1.6-4.9-3.5-6.2-5.9s-2.1-5.4-2.1-9
	c0-5.3,1.3-9.7,3.9-13s6.6-5.8,12.1-7.3s12.6-2.3,21.4-2.3c6.7,0,13.1,0.5,19.2,1.4L501.5,60c-6.9-0.6-12.9-1-18.1-1
	c-7.7,0-13.2,0.7-16.7,2.1c-3.4,1.4-5.1,3.7-5.1,6.8c0,2,0.6,3.5,1.8,4.5s3.2,1.9,6,2.6l13.5,3.3c5.2,1.3,9.4,2.8,12.6,4.5
	s5.6,3.9,7.1,6.5s2.3,5.8,2.3,9.7c0,5.3-1.3,9.5-3.8,12.8s-6.4,5.7-11.7,7.2c-5.3,1.6-12.2,2.3-20.6,2.3
	C463.2,121.4,458.5,121.3,454.6,121z"/>
<path class="st1" d="M43.2,52.8v11H73v12.1H43.2v44.2H28.7V75.9H5.8V63.8h22.9V53.5c0-12.6,2.9-22.1,8.6-28.3
	c5.7-6.3,14.3-9.4,25.9-9.4c5.2,0,10.2,0.5,15.1,1.4l-1.5,12.6c-5.4-0.6-10.1-1-14-1C49.7,28.8,43.2,36.8,43.2,52.8z"/>
<path class="st1" d="M96.2,117c-4.8-2.9-8.4-7.2-10.9-12.9s-3.7-12.4-3.7-20.4s1.2-14.8,3.7-20.4s6.1-10,10.9-12.9
	c4.8-3,10.5-4.4,17.2-4.4s12.4,1.5,17.2,4.4c4.8,2.9,8.4,7.2,10.9,12.9s3.7,12.4,3.7,20.4s-1.2,14.8-3.7,20.4s-6.1,9.9-10.9,12.9
	c-4.8,2.9-10.5,4.4-17.2,4.4S101,120,96.2,117z M125.8,102c2.9-4.3,4.4-10.4,4.4-18.3s-1.4-14-4.4-18.3c-2.9-4.3-7-6.4-12.4-6.4
	s-9.5,2.1-12.4,6.4s-4.4,10.4-4.4,18.3s1.4,14,4.4,18.3c2.9,4.3,7,6.4,12.4,6.4S122.8,106.3,125.8,102z"/>
<path class="st1" d="M216,48.8c3.1,1.9,5.4,4.8,6.9,8.8s2.2,9.2,2.2,15.6h-14.4c0-5.3-0.8-9.1-2.4-11.4c-1.6-2.4-4.1-3.5-7.6-3.5
	c-6.1,0-10.7,2.6-13.8,7.8s-4.6,12.8-4.6,22.6V108h17.8v12.1h-48.6V108h16.2V59.4h-13.4V47.3h25.2L182,66h1.6
	c0.4-6.7,2.3-11.7,5.6-15.1c3.3-3.3,8.1-5,14.4-5C208.8,46,212.8,46.9,216,48.8z"/>
<path class="st1" d="M295.4,90.2h-49.1c1.3,6,4.2,10.6,8.6,13.8c4.4,3.2,10.4,4.7,17.7,4.7c5.6,0,11.6-0.6,17.8-1.9l1.8,12.8
	c-6.7,1.3-13.8,1.9-21.3,1.9c-8.3,0-15.3-1.5-21.1-4.4s-10.2-7.2-13.2-12.9s-4.5-12.5-4.5-20.6c0-7.9,1.3-14.6,3.8-20.2
	s6.3-9.9,11.2-12.9s10.8-4.5,17.7-4.5c9.9,0,17.5,3,22.9,9s8,14.6,8,25.9C295.8,84.2,295.7,87.3,295.4,90.2z M282.6,79.1
	c0-6.5-1.5-11.5-4.6-15s-7.4-5.3-12.9-5.3c-5.6,0-10.1,1.8-13.4,5.3c-3.3,3.5-5.3,8.5-5.9,15H282.6z"/>
<path class="st1" d="M317.9,117c-4.8-2.9-8.4-7.2-10.9-12.9s-3.7-12.4-3.7-20.4s1.2-14.8,3.7-20.4s6.1-10,10.9-12.9
	c4.8-3,10.5-4.4,17.2-4.4s12.4,1.5,17.2,4.4s8.4,7.2,10.9,12.9s3.7,12.4,3.7,20.4s-1.2,14.8-3.7,20.4s-6.1,9.9-10.9,12.9
	c-4.8,2.9-10.5,4.4-17.2,4.4S322.6,120,317.9,117z M347.4,102c2.9-4.3,4.4-10.4,4.4-18.3s-1.5-14-4.4-18.3s-7-6.4-12.4-6.4
	s-9.5,2.1-12.4,6.4s-4.4,10.4-4.4,18.3s1.5,14,4.4,18.3s7,6.4,12.4,6.4S344.5,106.3,347.4,102z"/>
<path class="st1" d="M427.4,50.5c4.4,3,7.7,7.4,10,13.1c2.3,5.8,3.4,12.7,3.4,20.8c0,7.9-1.1,14.6-3.4,20.2
	c-2.3,5.5-5.6,9.7-9.9,12.6s-9.5,4.3-15.7,4.3c-5.6,0-10.1-1.1-13.5-3.2s-5.4-5.3-5.8-9.4h-1.4v42.8h-14.5V47.3h13.2l1.2,13.2h1.6
	c0.6-4.9,2.5-8.5,5.7-10.9S406,46,411.8,46C417.8,46,423,47.5,427.4,50.5z M422.1,102.9c2.8-4.2,4.2-10.3,4.2-18.5
	c0-8.3-1.5-14.8-4.4-19.3c-2.9-4.5-7-6.8-12.4-6.8c-12.4,0-18.5,6.9-18.5,20.9v17.6c0,8.2,6.1,12.3,18.4,12.3
	C415,109.1,419.2,107,422.1,102.9z"/>
<path class="st1" d="M454.6,121c-3.9-0.3-7.4-0.8-10.6-1.6l1.6-13.2c9.3,1.5,17.1,2.2,23.2,2.2c7.3,0,12.6-0.7,16-2.2s5-3.7,5-6.9
	c0-2.1-0.6-3.7-1.7-4.8c-1.1-1.1-2.9-2-5.5-2.6l-16.7-4.2c-4.7-1.2-8.4-2.6-11.2-4.1c-2.8-1.6-4.9-3.5-6.2-5.9s-2.1-5.4-2.1-9
	c0-5.3,1.3-9.7,3.9-13s6.6-5.8,12.1-7.3s12.6-2.3,21.4-2.3c6.7,0,13.1,0.5,19.2,1.4L501.5,60c-6.9-0.6-12.9-1-18.1-1
	c-7.7,0-13.2,0.7-16.7,2.1c-3.4,1.4-5.1,3.7-5.1,6.8c0,2,0.6,3.5,1.8,4.5s3.2,1.9,6,2.6l13.5,3.3c5.2,1.3,9.4,2.8,12.6,4.5
	s5.6,3.9,7.1,6.5s2.3,5.8,2.3,9.7c0,5.3-1.3,9.5-3.8,12.8s-6.4,5.7-11.7,7.2c-5.3,1.6-12.2,2.3-20.6,2.3
	C463.2,121.4,458.5,121.3,454.6,121z"/>
<rect x="11.2" y="108.1" class="st1" width="50.8" height="12"/>
<rect x="524.1" y="121.4" class="st0" width="90.4" height="47.2"/>
<rect x="11.2" y="108.1" class="st1" width="50.8" height="12"/>
</svg>